<svg xmlns="http://www.w3.org/2000/svg" xmlns:xlink="http://www.w3.org/1999/xlink" version="1.1" id="Layer" x="0px" y="0px" width="570.794px" height="612px" viewBox="0 0 570.794 612" enable-background="new 0 0 570.794 612" xml:space="preserve">
<path fill="#EF0000" d="M540.399,348.784C562.197,8.945,562.197,8.945,562.197,8.945H9.338c0,0,0,0,21.797,339.839  c9.001,140.342,114.003,254.632,254.632,254.632C426.397,603.416,531.398,489.126,540.399,348.784z"/>
<path d="M285.767,609.361c-68.597,0-132.854-27.162-180.933-76.483C58,484.834,29.72,419.591,25.203,349.165L3,3h565.535  l-22.203,346.165c-4.517,70.426-32.797,135.669-79.631,183.713C418.622,582.199,354.365,609.361,285.767,609.361z M15.676,14.889  l21.392,333.514c9.107,141.993,116.025,249.068,248.699,249.068c132.675,0,239.592-107.075,248.7-249.068l21.391-333.515H15.676z"/>
<path fill="#FFFFFF" d="M285.508,518.114c-30.964,0-56.744-7.83-76.622-23.272c-15.45-12.001-22.178-24.808-23.873-28.446  l-0.129-0.276l-0.001-0.307c-0.009-1.322-0.088-2.621-0.173-3.996c-0.223-3.624-0.475-7.73,0.73-12.66  c3.306-13.53,11.603-19.811,17.659-24.397c5.232-3.96,8.443-6.615,8.528-11.101c0.143-7.568-2.578-9.546-4.204-10.727  c-1.279-0.931-2.753-1.837-5.437-1.837c-1.718,0-3.764,0.391-6.083,1.16c-4.325,1.436-5.936,5.385-8.203,11.713  c-2.692,7.509-6.043,16.851-17.428,24.144c-4.335,2.777-8.234,3.642-11.675,4.402c-1.322,0.294-2.539,0.564-3.76,0.92l-0.272,0.079  l-0.283-0.033c-5.845-0.679-57.774-8.711-81.132-80.601c-9.57-29.452-10.089-56.391-1.544-80.069  c6.642-18.403,16.74-28.754,19.677-31.489l0.225-0.208l0.29-0.096c1.254-0.417,2.463-0.893,3.744-1.398  c3.378-1.332,7.207-2.841,12.269-3.218c1.087-0.081,2.172-0.122,3.224-0.122c11.978,0,19.438,5.2,25.434,9.378  c4.054,2.826,7.256,5.057,10.731,5.057c0.822,0,1.626-0.123,2.461-0.377c7.244-2.203,8.284-5.401,8.905-7.313  c0.608-1.87,1.625-4.997-2.916-11.164c-2.702-3.67-6.957-3.98-13.675-4.183c-7.972-0.24-17.893-0.54-28.347-9.113  c-3.977-3.262-6.005-6.704-7.794-9.742c-0.604-1.027-1.174-1.994-1.808-2.953l-0.143-0.217l-0.056-0.253  c-0.505-2.285-11.657-56.471,51.521-102.372c23.983-17.424,48.402-26.259,72.579-26.259c21.45,0,35.516,6.995,39.316,9.139  l0.256,0.146l0.178,0.237c0.724,0.967,1.482,1.888,2.287,2.863c2.332,2.826,4.951,6,6.874,10.697  c5.278,12.89,2.257,22.846,0.052,30.117c-1.904,6.28-2.941,10.315-0.375,13.992c4.334,6.207,7.697,6.208,9.706,6.21  c1.967,0,5.256,0,9.718-6.225c2.656-3.702,1.637-7.845-0.247-14.297c-2.235-7.658-5.016-17.185-0.092-29.776  c1.871-4.79,4.519-7.781,6.854-10.42c0.79-0.893,1.535-1.734,2.249-2.633l0.162-0.204l0.226-0.132  c0.634-0.374,15.788-9.137,39.73-9.137c24.603,0,49.348,8.917,73.552,26.5c60.511,43.963,52.019,95.45,50.85,101.176l-0.06,0.288  l-0.168,0.24c-0.707,1.004-1.351,2.016-2.034,3.088c-1.95,3.064-4.16,6.536-8.032,9.814c-10.627,9.002-21.03,9.207-28.625,9.356  c-6.563,0.129-10.721,0.391-13.424,3.968c-4.565,6.042-3.527,9.24-2.905,11.151c0.605,1.869,1.621,4.998,8.921,7.318  c0.872,0.277,1.716,0.412,2.581,0.412c3.506,0,6.785-2.235,10.938-5.065c6.122-4.173,13.739-9.366,25.765-9.366  c0.837,0,1.687,0.025,2.527,0.075c5.138,0.301,8.802,1.895,12.034,3.301c1.091,0.475,2.122,0.924,3.194,1.325l0.245,0.091  l0.194,0.173c1.752,1.55,42.624,38.833,18.492,113.103c-9.568,29.447-24.979,51.546-45.806,65.679  c-16.191,10.987-30.449,13.43-34.434,13.916l-0.304,0.037l-0.293-0.093c-1.25-0.398-2.504-0.723-3.832-1.065  c-3.536-0.913-7.518-1.94-11.839-4.612c-11.847-7.327-15.255-17.157-17.744-24.335c-2.15-6.199-3.684-10.073-7.923-11.54  c-2.272-0.786-4.295-1.185-6.011-1.185c-2.693,0-4.246,0.964-5.491,1.867c-1.591,1.157-4.25,3.093-4.202,10.747  c0.027,4.558,3.288,7.309,8.604,11.421c6.309,4.88,14.159,10.952,17.577,24.035c1.301,4.977,0.917,8.954,0.579,12.462  c-0.115,1.202-0.223,2.313-0.271,3.45l-0.012,0.26l-0.104,0.24C386.427,467.722,363.59,518.114,285.508,518.114z"/>
<path d="M497.081,251.953c12.294-3.996,15.086-27.07,32.554-36.634c-19.438,2.427-35.204-14.563-47.854-10.453  c-5.008,1.627-8.23,3.669-10.63,5.966c2.925-15.844,7.099-66.282-46.917-105.054c-54.626-39.21-102.015-19.598-115.663-12.397  c1.453-2.989,2.409-6.839,2.409-12.553c-0.001-12.927-21.084-22.712-24.782-42.281c-3.698,19.237-24.728,28.98-24.728,42.281  c0,5.266,0.946,8.962,2.39,11.953c-14.215-7.693-60.857-27.172-114.371,12.18c-54.171,39.836-50.163,90.964-47.532,106.17  c-2.395-2.304-5.76-4.404-11.194-6.169c-12.295-3.994-28.116,13.034-47.87,10.503c17.153,9.462,19.921,32.474,32.571,36.583  c4.894,1.59,8.644,1.861,11.882,1.454c-11.782,11.245-44.515,49.555-23.676,112.459c21.095,63.673,70.765,75.758,86.17,77.999  c-2.854,1.574-5.815,4.113-9.079,8.606c-7.599,10.459,3.708,30.768-4.803,48.772c14.299-13.391,37.041-8.911,44.859-19.671  c3.024-4.163,4.44-7.646,5.054-10.853c7.055,14.68,33.375,57.648,99.639,57.269c67.239-0.388,94.049-44.107,100.859-57.956  c0.582,3.272,2.071,6.948,5.43,11.571c7.599,10.459,30.406,5.981,44.899,19.641c-8.314-17.738,2.972-37.982-4.846-48.743  c-3.023-4.162-5.898-6.585-8.758-8.159c16.143-2.173,65.141-13.929,85.254-77.064c20.41-64.068-12.885-103.077-23.951-113.832  C487.689,253.998,491.647,253.718,497.081,251.953z M497.531,363.859c-22.497,69.24-71.833,77.75-79.073,78.635  c-4.763-1.516-9.681-2.023-15.357-5.534c-20.487-12.67-14.424-32.022-25.946-36.008c-7.371-2.549-10.612-0.705-12.786,0.873  c-2.176,1.581-4.832,4.022-4.783,11.892c0.076,12.188,20.244,12.902,26.229,35.804c1.647,6.309,0.469,10.761,0.262,15.495  c-0.669,1.535-23.096,51.693-100.566,51.693c-72.809,0-96.146-44.3-99.221-50.905c-0.031-4.997-1.067-9.832,0.518-16.314  c5.719-23.399,25.997-23.614,26.227-35.804c0.147-7.797-2.608-10.311-4.782-11.891c-2.175-1.58-5.317-3.353-12.787-0.873  c-11.569,3.837-6.015,23.239-25.947,36.008c-5.656,3.623-10.366,3.785-15.07,5.155c-4.522-0.525-56.711-8.088-79.958-79.64  c-22.502-69.251,12.429-105.137,17.755-110.096c4.743-1.574,9.02-4.053,15.675-4.549c24.022-1.792,30.491,17.428,42.155,13.879  c7.462-2.27,9-5.667,9.832-8.222c0.831-2.557,1.545-6.093-3.121-12.432c-7.224-9.816-23.961,1.46-42.263-13.549  c-5.042-4.135-6.706-8.431-9.32-12.383c-0.364-1.642-11.695-55.399,50.975-100.931c59.511-43.238,104.75-20.209,110.379-17.034  c2.93,3.913,6.51,7.204,8.985,13.252c9.128,22.292-7.152,34.384-0.173,44.381c4.465,6.395,8.171,6.809,10.856,6.81  c2.689,0,6.273-0.413,10.859-6.81c7.104-9.903-8.793-22.337-0.174-44.381c2.374-6.073,5.946-8.982,8.896-12.69  c1.428-0.841,49.061-28.253,111.744,17.291c59.644,43.333,51.556,93.604,50.3,99.758c-2.815,3.995-4.838,8.417-9.826,12.64  c-18.379,15.569-34.911,3.823-42.262,13.549c-4.702,6.223-3.95,9.875-3.121,12.43c0.831,2.557,2.332,5.839,9.833,8.224  c11.613,3.695,18.525-15.266,42.154-13.88c6.51,0.381,10.38,2.879,14.817,4.539C480.704,253.356,521.47,290.186,497.531,363.859z"/>
<path d="M403.448,316.219c-2.323-0.754-4.236-1.036-5.926-1.037c6.464-7.619,19.437-27.905,9.317-59.67  c-10.103-31.711-32.661-40.457-42.505-42.803c1.395-1.028,2.844-2.481,4.399-4.623c4.929-6.783-2.403-19.954,3.115-31.63  c-9.273,8.685-24.022,5.779-29.091,12.758c-1.379,1.898-2.241,3.579-2.771,5.132c-5.485-8.679-20.802-26.688-53.602-26.875  c-33.296-0.19-48.575,18.569-53.842,27.201c-0.547-1.645-1.481-3.473-3.039-5.617c-4.928-6.783-19.72-3.879-29.118-12.736  c5.393,11.503-1.928,24.631,3.142,31.609c1.411,1.942,2.772,3.297,4.115,4.287c-9.573,2.276-32.282,10.943-42.854,42.855  c-10.472,31.61,2.656,51.949,9.238,59.625c-1.738,0.009-3.759,0.32-6.288,1.141c-7.974,2.591-9.783,17.556-21.11,23.758  c12.606-1.575,22.83,9.445,31.033,6.779c2.314-0.751,4.038-1.641,5.403-2.629c-0.749,9.973,0.691,33.997,27.536,53.736  c26.813,19.716,50.202,13.533,59.546,9.646c-0.523,1.651-0.842,3.678-0.842,6.325c0,8.386,13.674,14.73,16.071,27.421  c2.397-12.478,16.038-18.796,16.037-27.421c0-2.59-0.355-4.594-0.934-6.258c9.184,3.791,32.546,9.96,59.715-9.541  c27.034-19.407,28.383-43.563,27.572-53.651c1.409,1.009,3.239,1.938,5.757,2.756c7.974,2.591,18.234-8.453,31.044-6.812  C413.445,333.809,411.652,318.884,403.448,316.219z M382.402,318.975c-15.579,1.163-19.775-11.301-27.34-9.002  c-4.838,1.472-5.836,3.676-6.375,5.333c-0.539,1.657-1.003,3.951,2.023,8.062c4.685,6.365,15.539-0.947,27.409,8.786  c4.063,3.334,4.742,6.829,7.431,9.855c0.731,5.667,1.024,26.883-29.917,49.361c-31.491,22.879-51.739,15.394-56.452,13.074  c-2.021-3.331-4.969-5.464-6.891-10.159c-5.921-14.456,4.637-22.3,0.112-28.783c-2.896-4.146-5.299-4.415-7.041-4.415  c-1.744,0-4.068,0.268-7.043,4.416c-4.605,6.423,5.703,14.486,0.114,28.782c-1.916,4.895-5.028,6.62-7.077,10.111  c-5.164,2.447-25.251,9.281-56.191-13.196c-31.027-22.543-30.646-43.816-29.91-49.412c2.75-3.02,3.803-6.617,7.816-10.016  c11.919-10.099,22.641-2.481,27.409-8.787c3.049-4.035,2.562-6.404,2.023-8.062c-0.539-1.657-1.512-3.787-6.375-5.333  c-7.532-2.395-12.015,9.901-27.339,9.002c-5.245-0.309-7.849-2.732-11.799-3.603c-3.909-4.134-16.646-21.114-4.816-57.521  c12.046-37.077,32.875-42.883,38.012-43.762c3.739,1.705,7.499,1.584,11.992,4.362c13.287,8.216,9.355,20.766,16.827,23.352  c4.779,1.653,6.882,0.457,8.292-0.567s3.134-2.607,3.102-7.711c-0.049-7.904-13.129-8.367-17.01-23.219  c-1.327-5.084,0.176-8.31-0.218-12.338c2.725-4.998,14.941-22.353,53.216-22.353c37.178,0,49.768,16.374,52.959,21.895  c-0.534,4.168,0.805,7.738-0.469,12.954c-3.708,15.177-16.858,15.316-17.009,23.221c-0.096,5.056,1.69,6.686,3.102,7.71  c1.409,1.024,3.447,2.175,8.292,0.567c7.501-2.489,3.9-15.071,16.825-23.353c4.427-2.833,7.96-2.4,11.67-4.021  c5.614,1.055,25.883,7.333,37.701,43.706c11.865,36.516-0.982,53.489-4.851,57.558C390.611,316.296,387.643,318.583,382.402,318.975  z"/>
<g>
	<path d="M285.412,504.796c-3.236-11.233-17.44-23.339-48.201-25.557c-21.406-1.541-32.714-11.851-34.452-18.81   c-1.831-7.333,2.635-15.782,3.08-16.579c-0.064,0.069-6.224,6.854-4.955,16.58c1.657,12.697,19.307,20.569,32.496,22.481   c14.733,2.135,40.685,1.238,52.029,24.394c11.545-22.784,37.743-21.665,54.109-24.394c14.335-2.391,28.979-9.537,30.414-22.483   c1.085-9.796-4.571-16.585-4.571-16.585c0.112,0.107,4.581,7.704,2.696,16.585c-1.489,7.019-13.048,17.268-34.448,18.811   C302.846,481.459,289.359,493.687,285.412,504.796z"/>
	<path d="M452.908,265.399c0.137-0.073,8.742-1.977,16.607,2.561c6.214,3.585,12.39,17.745,7.244,38.574   c-7.396,29.944,0.066,46.549,9.411,53.737c-11.683-0.395-27.585,9.374-39.2,37.943c-8.08,19.883-21.378,27.452-28.535,26.955   c-7.617-0.531-14.313-7.508-14.817-8.057c0.028,0.053,4.579,8.038,14.239,9.839c12.589,2.347,25.528-12.004,31.423-23.958   c6.583-13.353,13.75-38.31,39.277-41.944c-18.101-18.021-8.941-42.592-6.479-58.999c2.157-14.373-0.113-30.509-11.983-35.874   C461.112,262.118,452.908,265.399,452.908,265.399z"/>
	<path d="M434.597,173.684c16.414,13.829,19.503,28.814,16.818,35.468c-2.829,7.01-11.41,11.219-12.238,11.602   c0.09-0.018,9.064-1.885,13.754-10.502c6.123-11.247-3.528-27.988-13.074-37.289c-10.665-10.387-32.186-24.915-27.754-50.316   c-22.732,11.646-43.271-4.658-58.113-12.07c-13.004-6.493-29.051-9.319-37.822,0.313c-6.635,7.288-6.049,16.104-6.049,16.104   c-0.028-0.152,0.822-8.924,7.566-15.001c5.33-4.803,20.705-6.3,38.925,5.029c26.193,16.287,44.291,14.322,54.016,7.654   C406.64,135.666,411.017,153.809,434.597,173.684z"/>
	<path d="M256.202,111.054c5.792,4.856,7.144,14.317,7.252,15.224c0.01-0.093,1.007-9.203-5.737-16.326   c-8.805-9.298-27.709-5.293-39.504,0.913c-13.174,6.933-33.642,22.911-56.43,10.847c4.051,25.219-17.801,39.713-29.438,51.54   c-10.193,10.36-17.84,24.749-11.39,36.066c4.881,8.563,13.447,10.729,13.447,10.729c-0.153-0.02-8.234-3.539-11.93-11.832   c-2.92-6.554,0.407-21.638,16.813-35.466c23.583-19.878,27.307-37.698,23.972-49.006c9.22,7.186,27.827,8.631,54.016-7.655   C235.497,104.751,250.704,106.444,256.202,111.054z"/>
	<path d="M153.522,423.563c-7.135,0.752-20.453-7.074-28.534-26.949c-11.618-28.572-27.416-37.62-39.201-37.942   c9.684-6.549,16.807-23.798,9.412-53.739c-5.15-20.834,1.159-34.775,7.242-38.579c6.406-4.006,15.817-2.372,16.719-2.193   c-0.091-0.041-8.445-3.8-17.299,0.412c-11.563,5.5-13.597,24.717-11.339,37.853c2.522,14.671,11.395,39.075-7.122,57.02   c25.236,3.941,32.268,29.202,39.921,43.924c6.703,12.895,18.024,24.614,30.781,21.978c9.653-1.996,14.359-9.474,14.359-9.474   C168.395,416.013,162.551,422.609,153.522,423.563z"/>
</g>
<g>
	<path d="M326.561,204.791c0.418,5.787-4.548,12.07-4.603,12.137c0,0,6.525-5.986,6.525-12.137c0-7.158-7.293-14.625-16.695-15.44   c-8.555-0.742-18.255-1.114-25.902-10.104c-7.137,9.154-17.348,9.362-25.904,10.104c-9.401,0.815-16.694,8.282-16.694,15.44   c0,6.15,6.525,12.137,6.525,12.137c-0.056-0.067-5.02-6.35-4.604-12.137c0.32-4.459,6.005-11.395,16.667-12.357   c15.324-1.384,21.673-8.521,24.01-11.621c2.338,3.1,8.688,10.236,24.01,11.621C320.556,193.396,326.241,200.332,326.561,204.791z"/>
	<path d="M213.293,226.566c-6.808-2.212-16.163,2.417-19.844,11.107c-3.349,7.906-6.7,17.016-17.613,21.512   c6.5,9.617,3.542,19.392,1.604,27.758c-2.13,9.194,2.718,18.437,9.525,20.649c5.85,1.901,13.559-2.456,13.559-2.456   c-0.08,0.032-7.591,2.812-12.965,0.627c-4.142-1.682-8.981-9.232-6.603-19.669c3.419-15.001-1.406-23.245-3.633-26.426   c3.671-1.265,12.42-5.098,18.472-19.244c4.21-9.841,12.563-13.105,16.903-12.032c5.632,1.391,10.074,8.056,10.12,8.128   C222.819,236.522,219.144,228.467,213.293,226.566z"/>
	<path d="M265.852,391.49c-2.88,3.42-11.555,5.69-20.747,0.202c-13.21-7.888-22.542-5.847-26.255-4.713   c-0.069-3.882-1.011-13.387-12.594-23.513c-8.058-7.045-8.582-15.998-6.219-19.793c3.063-4.927,10.774-7.091,10.857-7.113   c0,0-8.797,1.007-12.413,5.983c-4.207,5.791-2.696,16.118,4.432,22.304c6.484,5.627,14.112,11.63,15.016,23.4   c11.155-3.213,19.538,2.622,26.896,7.051c8.085,4.865,18.374,3.112,22.582-2.679c3.615-4.977,1.854-13.653,1.854-13.653   C269.267,379.052,269.59,387.054,265.852,391.49z"/>
	<path d="M326.503,391.274c-9.189,5.486-17.867,3.218-20.746-0.201c-3.739-4.438-3.416-12.438-3.41-12.525   c0,0-1.761,8.679,1.855,13.654c4.208,5.791,14.495,7.545,22.581,2.678c7.358-4.427,15.424-9.828,26.896-7.05   c0.392-11.601,8.531-17.771,15.018-23.401c7.126-6.186,8.638-16.513,4.43-22.303c-3.614-4.977-12.411-5.983-12.411-5.983   c0.082,0.021,7.793,2.187,10.857,7.113c2.36,3.796,1.838,12.748-6.22,19.793c-11.584,10.126-12.526,19.632-12.593,23.515   C349.046,385.429,339.714,383.388,326.503,391.274z"/>
	<path d="M393.88,286.432c-1.938-8.364-4.582-17.704,1.604-27.757c-10.911-3.958-14.265-13.605-17.613-21.513   c-3.682-8.689-13.037-13.318-19.843-11.106c-5.852,1.9-9.526,9.956-9.526,9.956c0.044-0.073,4.487-6.736,10.12-8.129   c4.339-1.073,12.692,2.19,16.902,12.033c6.05,14.146,14.802,17.979,18.471,19.244c-2.226,3.181-7.05,11.424-3.633,26.425   c2.378,10.436-2.459,17.986-6.603,19.668c-5.373,2.185-12.884-0.596-12.965-0.628c0,0,7.71,4.356,13.561,2.456   C391.162,304.869,396.009,295.626,393.88,286.432z"/>
</g>
<g>
	<path fill="#00A14B" d="M206.928,403.613c1.494,1.084,3.994,2.9,3.858,10.03c-0.079,4.104-3.015,6.521-8.195,10.443   c-6.502,4.922-14.593,11.048-17.97,24.869c-1.206,4.928-2.196,7.818-2.549,11.713c-0.575,6.312-2.947,11.623-6.995,17.194   c-3.058,4.209-10.986,7.912-16.129,9.31c-6.201,1.686-13.889,4.244-19.156,8.923c3.04-6.298,3.007-14.787,2.565-21.271   c-0.369-5.403,1.107-13.501,4.163-17.709c5.286-7.275,8.416-10.357,13.927-12.421c3.408-1.276,5.921-3.083,10.279-5.873   c11.628-7.45,15.032-16.943,17.767-24.573c2.249-6.271,3.713-9.881,7.675-11.197C203.027,400.777,205.376,402.484,206.928,403.613z   "/>
	<path fill="#00A14B" d="M365.689,403.644c1.491-1.085,3.991-2.901,10.73-0.569c3.878,1.343,5.27,4.882,7.4,11.021   c2.671,7.705,5.997,17.292,18.1,24.774c4.313,2.67,6.756,4.505,10.352,6.044c5.824,2.496,10.143,6.395,14.191,11.967   c3.057,4.207,4.129,12.893,3.869,18.217c-0.313,6.416-0.257,14.521,2.566,20.975c-5.05-4.837-13.134-7.429-19.437-9.013   c-5.254-1.32-12.498-5.225-15.556-9.432c-5.286-7.275-7.25-11.205-7.51-17.084c-0.16-3.636-1.102-6.583-2.41-11.591   c-3.49-13.361-11.468-19.531-17.878-24.489c-5.27-4.077-8.251-6.586-8.278-10.76C361.785,406.479,364.133,404.771,365.689,403.644z   "/>
	<path fill="#00A14B" d="M414.778,252.665c-0.572-1.754-1.526-4.693,2.773-10.382c2.475-3.273,6.272-3.504,12.77-3.632   c8.153-0.16,18.299-0.361,29.154-9.558c3.872-3.278,6.372-5.034,8.947-7.979c4.174-4.766,9.215-7.669,15.765-9.797   c4.947-1.607,13.539,0.057,18.522,1.949c6.005,2.281,13.73,4.73,20.742,4.041c-6.162,3.308-11.125,10.195-14.578,15.701   c-2.879,4.588-8.831,10.271-13.777,11.879c-8.553,2.779-12.898,3.434-18.567,1.864c-3.509-0.971-6.604-0.987-11.771-1.291   c-13.785-0.809-22.119,4.871-28.814,9.436c-5.506,3.752-8.813,5.813-12.792,4.548C416.266,257.253,415.369,254.491,414.778,252.665   z"/>
	<path fill="#00A14B" d="M286.225,159.323c-1.846,0.002-4.936,0.001-9.018-5.847c-2.348-3.365-1.394-7.047,0.492-13.267   c2.367-7.803,5.312-17.515-0.081-30.681c-1.921-4.695-2.818-7.616-4.824-10.975c-3.243-5.443-4.446-11.134-4.445-18.022   c0-5.201,4.237-12.858,7.577-17.013c4.024-5.006,8.742-11.597,10.251-18.478c1.242,6.882,6.258,13.731,10.427,18.716   c3.476,4.155,7.041,11.573,7.041,16.773c0,8.993-0.721,13.328-3.965,18.235c-2.008,3.037-2.979,5.975-4.864,10.795   c-5.029,12.861-2.202,22.542,0.07,30.321c1.864,6.396,2.804,10.177,0.372,13.57C291.048,159.325,288.145,159.326,286.225,159.323z"/>
	<path fill="#00A14B" d="M157.766,252.762c-0.568,1.755-1.523,4.694-8.347,6.769c-3.926,1.194-7.133-0.852-12.465-4.567   c-6.689-4.662-15.016-10.464-29.204-9.404c-5.06,0.376-8.114,0.327-11.928,1.197c-6.179,1.402-11.963,0.788-18.514-1.341   c-4.947-1.607-10.918-8.004-13.839-12.464c-3.517-5.375-8.328-11.897-14.405-15.46c6.929,0.945,14.993-1.709,21.022-4.133   c5.026-2.021,13.182-3.12,18.128-1.513c8.552,2.779,12.453,4.803,16.117,9.405c2.268,2.848,4.761,4.68,8.763,7.962   c10.678,8.758,20.758,9.06,28.859,9.303c6.659,0.202,10.546,0.479,13.022,3.839C159.258,248.175,158.361,250.936,157.766,252.762z"/>
</g>
<g>
	<path fill="#00A14B" d="M246.44,239.674c-0.969,0.705-2.589,1.882-6.96,0.369c-2.515-0.87-3.418-3.165-4.8-7.146   c-1.731-4.998-3.889-11.216-11.737-16.068c-2.798-1.731-4.382-2.922-6.713-3.92c-3.778-1.618-6.578-4.146-9.203-7.76   c-1.983-2.729-2.678-8.36-2.51-11.813c0.203-4.162,0.167-9.417-1.665-13.603c3.275,3.136,8.518,4.817,12.605,5.844   c3.408,0.856,8.105,3.388,10.088,6.118c3.428,4.718,4.702,7.266,4.871,11.078c0.104,2.359,0.714,4.271,1.563,7.518   c2.264,8.665,7.437,12.667,11.593,15.881c3.418,2.644,5.352,4.272,5.37,6.979C248.97,237.836,247.447,238.943,246.44,239.674z"/>
	<path fill="#00A14B" d="M221.117,315.374c0.372,1.139,0.99,3.043-1.799,6.733c-1.604,2.123-4.067,2.272-8.279,2.357   c-5.288,0.103-11.869,0.232-18.909,6.197c-2.51,2.126-4.132,3.265-5.803,5.174c-2.706,3.093-5.975,4.975-10.224,6.354   c-3.208,1.042-8.779-0.036-12.01-1.264c-3.896-1.479-8.905-3.068-13.452-2.62c3.995-2.146,7.214-6.612,9.453-10.182   c1.868-2.977,5.728-6.662,8.936-7.704c5.546-1.802,8.363-2.227,12.041-1.209c2.276,0.63,4.283,0.64,7.633,0.837   c8.939,0.524,14.345-3.158,18.687-6.118c3.571-2.434,5.716-3.77,8.296-2.95C220.151,312.399,220.733,314.189,221.117,315.374z"/>
	<path fill="#00A14B" d="M285.362,362.546c1.197-0.001,3.2-0.001,5.847,3.792c1.523,2.181,0.903,4.568-0.317,8.602   c-1.536,5.061-3.446,11.359,0.051,19.898c1.246,3.045,1.828,4.938,3.127,7.118c2.105,3.529,2.885,7.22,2.885,11.688   c0,3.372-2.748,8.336-4.912,11.032c-2.613,3.246-5.672,7.52-6.65,11.981c-0.807-4.462-4.058-8.903-6.762-12.137   c-2.253-2.695-4.566-7.505-4.565-10.879c0-5.831,0.466-8.644,2.57-11.826c1.302-1.968,1.933-3.874,3.155-7   c3.261-8.34,1.429-14.619-0.044-19.662c-1.212-4.148-1.819-6.603-0.242-8.801C282.233,362.545,284.116,362.545,285.362,362.546z"/>
	<path fill="#00A14B" d="M350.074,315.757c0.368-1.139,0.986-3.044,5.412-4.389c2.547-0.775,4.627,0.552,8.083,2.959   c4.339,3.025,9.74,6.789,18.941,6.102c3.28-0.245,5.262-0.212,7.734-0.775c4.008-0.912,7.758-0.513,12.008,0.868   c3.209,1.042,7.081,5.189,8.974,8.083c2.282,3.486,5.4,7.716,9.342,10.025c-4.492-0.611-9.723,1.11-13.633,2.682   c-3.261,1.31-8.549,2.023-11.757,0.979c-5.547-1.801-8.075-3.113-10.452-6.098c-1.471-1.847-3.089-3.036-5.685-5.164   c-6.923-5.679-13.46-5.877-18.713-6.035c-4.32-0.129-6.841-0.31-8.445-2.49C349.106,318.731,349.688,316.94,350.074,315.757z"/>
	<path fill="#00A14B" d="M325.826,239.833c-0.97-0.704-2.591-1.881-2.502-6.505c0.049-2.659,1.954-4.228,5.313-6.772   c4.217-3.19,9.465-7.164,11.655-16.128c0.782-3.195,1.425-5.071,1.654-7.596c0.371-4.093,1.908-7.537,4.534-11.152   c1.984-2.729,7.124-5.129,10.46-6.038c4.022-1.091,9.009-2.75,12.423-5.786c-1.97,4.085-1.95,9.589-1.662,13.795   c0.238,3.505-0.718,8.754-2.702,11.484c-3.427,4.717-5.456,6.718-9.029,8.057c-2.211,0.827-3.842,1.998-6.668,3.808   c-7.54,4.83-9.749,10.988-11.521,15.933c-1.457,4.069-2.409,6.411-4.978,7.263C328.356,241.672,326.833,240.565,325.826,239.833z"/>
</g>
<path d="M316.939,292.741c0,8.43-3.265,16.096-8.601,21.803c-1.514,1.619-4.985,3.031,16.069,33.084  c-22.489-30.054-24.058-26.819-25.663-26.053c-4.162,1.987-8.82,3.099-13.74,3.099c-4.697,0-9.158-1.014-13.174-2.836  c-2.065-0.937-4.64-4.512-27.84,26.78c21.466-32.407,18.271-33.331,16.689-35.188c-4.744-5.573-7.608-12.797-7.608-20.69  c0-3.031,3.468-7.367-30.252-19.627c34.339,10.204,33.367,5.576,34.797,3.198c4.16-6.918,10.866-12.132,18.822-14.341  c2.726-0.758,8.338,2.474,7.967-32.575c1.411,34.43,6.321,31.8,8.996,32.527c8.67,2.357,15.873,8.273,19.942,16.083  c0.976,1.871-1.196,6.874,37.486-6.501C311.9,285.622,316.939,289.682,316.939,292.741z"/>
<circle fill="#FFDE17" cx="284.934" cy="292.806" r="29.394"/>
<g>
	<path d="M286.915,313.529c-1.501,0-2.876-0.071-4.031-0.199c0.514,0.022,1.029,0.034,1.543,0.034c3.896,0,7.544-0.649,9.759-1.736   c7.262-3.564,11.772-10.801,11.772-18.885c0-8.339-4.934-15.898-12.568-19.255c-1.75-0.769-5.54-1.306-9.218-1.306   c-1.609,0-3.101,0.104-4.391,0.305c1.378-0.691,3.586-1.062,6.407-1.062c3.739,0,7.458,0.649,8.893,1.276   c8.25,3.605,12.794,10.724,12.794,20.042c0,8.86-4.194,15.816-11.809,19.584c-1.453,0.719-5.13,1.202-9.149,1.202   C286.915,313.529,286.915,313.529,286.915,313.529z"/>
	<path d="M287.474,306.1c-1.021,0-1.94-0.092-2.716-0.265c0.033,0,0.065,0,0.098,0c2.968,0,4.607-0.558,6.291-1.459   c4.301-2.301,6.973-6.758,6.973-11.633c0-4.88-2.678-9.342-6.987-11.64c-1.754-0.935-4.026-1.45-6.399-1.45   c-0.266,0-0.534,0.006-0.804,0.019c0.808-0.248,1.833-0.378,3.012-0.378c2.377,0,5.05,0.531,6.354,1.265   c4.599,2.583,6.739,6.455,6.739,12.185c0,5.734-2.263,9.753-6.918,12.285C291.937,305.669,289.669,306.1,287.474,306.1   L287.474,306.1z"/>
	<path d="M285.385,297.584c1.048-0.132,1.836-0.433,2.515-0.949c1.225-0.936,1.928-2.354,1.928-3.893   c0-1.494-0.67-2.886-1.838-3.821c-0.691-0.554-1.665-0.939-2.576-1.036c1.41-0.489,3.121,0.197,3.697,0.522   c1.94,1.094,2.632,2.948,2.632,4.334c0,1.734-0.599,3.294-2.321,4.459C288.93,297.533,286.469,298.295,285.385,297.584z"/>
</g>
<g transform="translate(10 -30) scale(0.0123)">
<path xmlns="http://www.w3.org/2000/svg" fill="#FFDE17" stroke="black" d="M 34075,28263 C 33803,26570 32699,25148 29428,23821 28292,23299 27026,22925 26649,22065 26514,21564 26497,21281 26582,20978 26825,19994 28000,19687 28931,19969 29531,20170 30099,20632 30441,21370 32043,20333 32039,20340 33157,19627 32748,18992 32529,18699 32261,18428 31298,17352 29986,16798 27887,16840 27523,16886 27157,16935 26793,16981 25745,17246 24747,17796 24161,18533 22405,20527 22906,24016 25043,25451 27149,27032 30243,27392 30638,28870 31023,30679 29308,31265 27605,31057 26349,30796 25650,30157 24895,28997 23505,29801 23505,29801 22077,30623 22415,31364 22772,31699 23339,32341 26028,35068 32755,34934 33962,30806 34011,30665 34336,29720 34075,28263 Z M 20175,17059 L 16704,17059 C 16704,20057 16690,23035 16690,26033 16690,27942 16788,29692 16478,30228 15970,31283 14654,31152 14054,30948 13444,30648 13134,30221 12774,29618 12675,29445 12601,29311 12576,29300 11634,29875 10696,30454 9754,31029 10223,31992 10915,32828 11800,33371 13123,34165 14901,34408 16760,33981 17970,33629 19014,32898 19561,31787 20351,30330 20182,28566 20175,26615 20193,23433 20175,20251 20175,17059 Z" style="&#10;    stroke-width: 30em;&#10;"/></g>
</svg>
