<svg xmlns="http://www.w3.org/2000/svg" width="570.794" height="612">
  <path fill="#EF0000" d="M540.399 348.784L562.197 8.945H9.338l21.797 339.839c9.001 140.342 114.003 254.632 254.632 254.632 140.63 0 245.631-114.29 254.632-254.632z"/>
  <path d="M285.767 609.361c-68.597 0-132.854-27.162-180.933-76.483C58 484.834 29.72 419.591 25.203 349.165L3 3h565.535l-22.203 346.165c-4.517 70.426-32.797 135.669-79.631 183.713-48.079 49.321-112.336 76.483-180.934 76.483zM15.676 14.889l21.392 333.514c9.107 141.993 116.025 249.068 248.699 249.068 132.675 0 239.592-107.075 248.7-249.068l21.391-333.515H15.676z"/>
  <path fill="#FFF" d="M285.508 518.114c-30.964 0-56.744-7.83-76.622-23.272-15.45-12.001-22.178-24.808-23.873-28.446l-.129-.276-.001-.307c-.009-1.322-.088-2.621-.173-3.996-.223-3.624-.475-7.73.73-12.66 3.306-13.53 11.603-19.811 17.659-24.397 5.232-3.96 8.443-6.615 8.528-11.101.143-7.568-2.578-9.546-4.204-10.727-1.279-.931-2.753-1.837-5.437-1.837-1.718 0-3.764.391-6.083 1.16-4.325 1.436-5.936 5.385-8.203 11.713-2.692 7.509-6.043 16.851-17.428 24.144-4.335 2.777-8.234 3.642-11.675 4.402-1.322.294-2.539.564-3.76.92l-.272.079-.283-.033c-5.845-.679-57.774-8.711-81.132-80.601-9.57-29.452-10.089-56.391-1.544-80.069 6.642-18.403 16.74-28.754 19.677-31.489l.225-.208.29-.096c1.254-.417 2.463-.893 3.744-1.398 3.378-1.332 7.207-2.841 12.269-3.218 1.087-.081 2.172-.122 3.224-.122 11.978 0 19.438 5.2 25.434 9.378 4.054 2.826 7.256 5.057 10.731 5.057.822 0 1.626-.123 2.461-.377 7.244-2.203 8.284-5.401 8.905-7.313.608-1.87 1.625-4.997-2.916-11.164-2.702-3.67-6.957-3.98-13.675-4.183-7.972-.24-17.893-.54-28.347-9.113-3.977-3.262-6.005-6.704-7.794-9.742-.604-1.027-1.174-1.994-1.808-2.953l-.143-.217-.056-.253c-.505-2.285-11.657-56.471 51.521-102.372 23.983-17.424 48.402-26.259 72.579-26.259 21.45 0 35.516 6.995 39.316 9.139l.256.146.178.237c.724.967 1.482 1.888 2.287 2.863 2.332 2.826 4.951 6 6.874 10.697 5.278 12.89 2.257 22.846.052 30.117-1.904 6.28-2.941 10.315-.375 13.992 4.334 6.207 7.697 6.208 9.706 6.21 1.967 0 5.256 0 9.718-6.225 2.656-3.702 1.637-7.845-.247-14.297-2.235-7.658-5.016-17.185-.092-29.776 1.871-4.79 4.519-7.781 6.854-10.42.79-.893 1.535-1.734 2.249-2.633l.162-.204.226-.132c.634-.374 15.788-9.137 39.73-9.137 24.603 0 49.348 8.917 73.552 26.5 60.511 43.963 52.019 95.45 50.85 101.176l-.06.288-.168.24c-.707 1.004-1.351 2.016-2.034 3.088-1.95 3.064-4.16 6.536-8.032 9.814-10.627 9.002-21.03 9.207-28.625 9.356-6.563.129-10.721.391-13.424 3.968-4.565 6.042-3.527 9.24-2.905 11.151.605 1.869 1.621 4.998 8.921 7.318.872.277 1.716.412 2.581.412 3.506 0 6.785-2.235 10.938-5.065 6.122-4.173 13.739-9.366 25.765-9.366.837 0 1.687.025 2.527.075 5.138.301 8.802 1.895 12.034 3.301 1.091.475 2.122.924 3.194 1.325l.245.091.194.173c1.752 1.55 42.624 38.833 18.492 113.103-9.568 29.447-24.979 51.546-45.806 65.679-16.191 10.987-30.449 13.43-34.434 13.916l-.304.037-.293-.093c-1.25-.398-2.504-.723-3.832-1.065-3.536-.913-7.518-1.94-11.839-4.612-11.847-7.327-15.255-17.157-17.744-24.335-2.15-6.199-3.684-10.073-7.923-11.54-2.272-.786-4.295-1.185-6.011-1.185-2.693 0-4.246.964-5.491 1.867-1.591 1.157-4.25 3.093-4.202 10.747.027 4.558 3.288 7.309 8.604 11.421 6.309 4.88 14.159 10.952 17.577 24.035 1.301 4.977.917 8.954.579 12.462-.115 1.202-.223 2.313-.271 3.45l-.012.26-.104.24c-.933 2.145-23.77 52.537-101.852 52.537z"/>
  <path d="M497.081 251.953c12.294-3.996 15.086-27.07 32.554-36.634-19.438 2.427-35.204-14.563-47.854-10.453-5.008 1.627-8.23 3.669-10.63 5.966 2.925-15.844 7.099-66.282-46.917-105.054-54.626-39.21-102.015-19.598-115.663-12.397 1.453-2.989 2.409-6.839 2.409-12.553-.001-12.927-21.084-22.712-24.782-42.281-3.698 19.237-24.728 28.98-24.728 42.281 0 5.266.946 8.962 2.39 11.953-14.215-7.693-60.857-27.172-114.371 12.18-54.171 39.836-50.163 90.964-47.532 106.17-2.395-2.304-5.76-4.404-11.194-6.169-12.295-3.994-28.116 13.034-47.87 10.503 17.153 9.462 19.921 32.474 32.571 36.583 4.894 1.59 8.644 1.861 11.882 1.454-11.782 11.245-44.515 49.555-23.676 112.459 21.095 63.673 70.765 75.758 86.17 77.999-2.854 1.574-5.815 4.113-9.079 8.606-7.599 10.459 3.708 30.768-4.803 48.772 14.299-13.391 37.041-8.911 44.859-19.671 3.024-4.163 4.44-7.646 5.054-10.853 7.055 14.68 33.375 57.648 99.639 57.269 67.239-.388 94.049-44.107 100.859-57.956.582 3.272 2.071 6.948 5.43 11.571 7.599 10.459 30.406 5.981 44.899 19.641-8.314-17.738 2.972-37.982-4.846-48.743-3.023-4.162-5.898-6.585-8.758-8.159 16.143-2.173 65.141-13.929 85.254-77.064 20.41-64.068-12.885-103.077-23.951-113.832 3.292.457 7.25.177 12.684-1.588zm.45 111.906c-22.497 69.24-71.833 77.75-79.073 78.635-4.763-1.516-9.681-2.023-15.357-5.534-20.487-12.67-14.424-32.022-25.946-36.008-7.371-2.549-10.612-.705-12.786.873-2.176 1.581-4.832 4.022-4.783 11.892.076 12.188 20.244 12.902 26.229 35.804 1.647 6.309.469 10.761.262 15.495-.669 1.535-23.096 51.693-100.566 51.693-72.809 0-96.146-44.3-99.221-50.905-.031-4.997-1.067-9.832.518-16.314 5.719-23.399 25.997-23.614 26.227-35.804.147-7.797-2.608-10.311-4.782-11.891-2.175-1.58-5.317-3.353-12.787-.873-11.569 3.837-6.015 23.239-25.947 36.008-5.656 3.623-10.366 3.785-15.07 5.155-4.522-.525-56.711-8.088-79.958-79.64-22.502-69.251 12.429-105.137 17.755-110.096 4.743-1.574 9.02-4.053 15.675-4.549 24.022-1.792 30.491 17.428 42.155 13.879 7.462-2.27 9-5.667 9.832-8.222.831-2.557 1.545-6.093-3.121-12.432-7.224-9.816-23.961 1.46-42.263-13.549-5.042-4.135-6.706-8.431-9.32-12.383-.364-1.642-11.695-55.399 50.975-100.931 59.511-43.238 104.75-20.209 110.379-17.034 2.93 3.913 6.51 7.204 8.985 13.252 9.128 22.292-7.152 34.384-.173 44.381 4.465 6.395 8.171 6.809 10.856 6.81 2.689 0 6.273-.413 10.859-6.81 7.104-9.903-8.793-22.337-.174-44.381 2.374-6.073 5.946-8.982 8.896-12.69 1.428-.841 49.061-28.253 111.744 17.291 59.644 43.333 51.556 93.604 50.3 99.758-2.815 3.995-4.838 8.417-9.826 12.64-18.379 15.569-34.911 3.823-42.262 13.549-4.702 6.223-3.95 9.875-3.121 12.43.831 2.557 2.332 5.839 9.833 8.224 11.613 3.695 18.525-15.266 42.154-13.88 6.51.381 10.38 2.879 14.817 4.539 1.258 1.115 42.024 37.945 18.085 111.618z"/>
  <path d="M403.448 316.219c-2.323-.754-4.236-1.036-5.926-1.037 6.464-7.619 19.437-27.905 9.317-59.67-10.103-31.711-32.661-40.457-42.505-42.803 1.395-1.028 2.844-2.481 4.399-4.623 4.929-6.783-2.403-19.954 3.115-31.63-9.273 8.685-24.022 5.779-29.091 12.758-1.379 1.898-2.241 3.579-2.771 5.132-5.485-8.679-20.802-26.688-53.602-26.875-33.296-.19-48.575 18.569-53.842 27.201-.547-1.645-1.481-3.473-3.039-5.617-4.928-6.783-19.72-3.879-29.118-12.736 5.393 11.503-1.928 24.631 3.142 31.609 1.411 1.942 2.772 3.297 4.115 4.287-9.573 2.276-32.282 10.943-42.854 42.855-10.472 31.61 2.656 51.949 9.238 59.625-1.738.009-3.759.32-6.288 1.141-7.974 2.591-9.783 17.556-21.11 23.758 12.606-1.575 22.83 9.445 31.033 6.779 2.314-.751 4.038-1.641 5.403-2.629-.749 9.973.691 33.997 27.536 53.736 26.813 19.716 50.202 13.533 59.546 9.646-.523 1.651-.842 3.678-.842 6.325 0 8.386 13.674 14.73 16.071 27.421 2.397-12.478 16.038-18.796 16.037-27.421 0-2.59-.355-4.594-.934-6.258 9.184 3.791 32.546 9.96 59.715-9.541 27.034-19.407 28.383-43.563 27.572-53.651 1.409 1.009 3.239 1.938 5.757 2.756 7.974 2.591 18.234-8.453 31.044-6.812-11.121-6.136-12.914-21.061-21.118-23.726zm-21.046 2.756c-15.579 1.163-19.775-11.301-27.34-9.002-4.838 1.472-5.836 3.676-6.375 5.333-.539 1.657-1.003 3.951 2.023 8.062 4.685 6.365 15.539-.947 27.409 8.786 4.063 3.334 4.742 6.829 7.431 9.855.731 5.667 1.024 26.883-29.917 49.361-31.491 22.879-51.739 15.394-56.452 13.074-2.021-3.331-4.969-5.464-6.891-10.159-5.921-14.456 4.637-22.3.112-28.783-2.896-4.146-5.299-4.415-7.041-4.415-1.744 0-4.068.268-7.043 4.416-4.605 6.423 5.703 14.486.114 28.782-1.916 4.895-5.028 6.62-7.077 10.111-5.164 2.447-25.251 9.281-56.191-13.196-31.027-22.543-30.646-43.816-29.91-49.412 2.75-3.02 3.803-6.617 7.816-10.016 11.919-10.099 22.641-2.481 27.409-8.787 3.049-4.035 2.562-6.404 2.023-8.062-.539-1.657-1.512-3.787-6.375-5.333-7.532-2.395-12.015 9.901-27.339 9.002-5.245-.309-7.849-2.732-11.799-3.603-3.909-4.134-16.646-21.114-4.816-57.521 12.046-37.077 32.875-42.883 38.012-43.762 3.739 1.705 7.499 1.584 11.992 4.362 13.287 8.216 9.355 20.766 16.827 23.352 4.779 1.653 6.882.457 8.292-.567s3.134-2.607 3.102-7.711c-.049-7.904-13.129-8.367-17.01-23.219-1.327-5.084.176-8.31-.218-12.338 2.725-4.998 14.941-22.353 53.216-22.353 37.178 0 49.768 16.374 52.959 21.895-.534 4.168.805 7.738-.469 12.954-3.708 15.177-16.858 15.316-17.009 23.221-.096 5.056 1.69 6.686 3.102 7.71 1.409 1.024 3.447 2.175 8.292.567 7.501-2.489 3.9-15.071 16.825-23.353 4.427-2.833 7.96-2.4 11.67-4.021 5.614 1.055 25.883 7.333 37.701 43.706 11.865 36.516-.982 53.489-4.851 57.558-3.995.827-6.963 3.114-12.204 3.506zm-96.99 185.821c-3.236-11.233-17.44-23.339-48.201-25.557-21.406-1.541-32.714-11.851-34.452-18.81-1.831-7.333 2.635-15.782 3.08-16.579-.064.069-6.224 6.854-4.955 16.58 1.657 12.697 19.307 20.569 32.496 22.481 14.733 2.135 40.685 1.238 52.029 24.394 11.545-22.784 37.743-21.665 54.109-24.394 14.335-2.391 28.979-9.537 30.414-22.483 1.085-9.796-4.571-16.585-4.571-16.585.112.107 4.581 7.704 2.696 16.585-1.489 7.019-13.048 17.268-34.448 18.811-30.763 2.22-44.25 14.448-48.197 25.557zm167.496-239.397c.137-.073 8.742-1.977 16.607 2.561 6.214 3.585 12.39 17.745 7.244 38.574-7.396 29.944.066 46.549 9.411 53.737-11.683-.395-27.585 9.374-39.2 37.943-8.08 19.883-21.378 27.452-28.535 26.955-7.617-.531-14.313-7.508-14.817-8.057.028.053 4.579 8.038 14.239 9.839 12.589 2.347 25.528-12.004 31.423-23.958 6.583-13.353 13.75-38.31 39.277-41.944-18.101-18.021-8.941-42.592-6.479-58.999 2.157-14.373-.113-30.509-11.983-35.874-8.983-4.058-17.187-.777-17.187-.777zm-18.311-91.715c16.414 13.829 19.503 28.814 16.818 35.468-2.829 7.01-11.41 11.219-12.238 11.602.09-.018 9.064-1.885 13.754-10.502 6.123-11.247-3.528-27.988-13.074-37.289-10.665-10.387-32.186-24.915-27.754-50.316-22.732 11.646-43.271-4.658-58.113-12.07-13.004-6.493-29.051-9.319-37.822.313-6.635 7.288-6.049 16.104-6.049 16.104-.028-.152.822-8.924 7.566-15.001 5.33-4.803 20.705-6.3 38.925 5.029 26.193 16.287 44.291 14.322 54.016 7.654-3.986 10.99.391 29.133 23.971 49.008zm-178.395-62.63c5.792 4.856 7.144 14.317 7.252 15.224.01-.093 1.007-9.203-5.737-16.326-8.805-9.298-27.709-5.293-39.504.913-13.174 6.933-33.642 22.911-56.43 10.847 4.051 25.219-17.801 39.713-29.438 51.54-10.193 10.36-17.84 24.749-11.39 36.066 4.881 8.563 13.447 10.729 13.447 10.729-.153-.02-8.234-3.539-11.93-11.832-2.92-6.554.407-21.638 16.813-35.466 23.583-19.878 27.307-37.698 23.972-49.006 9.22 7.186 27.827 8.631 54.016-7.655 18.224-11.337 33.431-9.644 38.929-5.034zm-102.68 312.509c-7.135.752-20.453-7.074-28.534-26.949-11.618-28.572-27.416-37.62-39.201-37.942 9.684-6.549 16.807-23.798 9.412-53.739-5.15-20.834 1.159-34.775 7.242-38.579 6.406-4.006 15.817-2.372 16.719-2.193-.091-.041-8.445-3.8-17.299.412-11.563 5.5-13.597 24.717-11.339 37.853 2.522 14.671 11.395 39.075-7.122 57.02 25.236 3.941 32.268 29.202 39.921 43.924 6.703 12.895 18.024 24.614 30.781 21.978 9.653-1.996 14.359-9.474 14.359-9.474-.066.139-5.91 6.735-14.939 7.689z"/>
  <path d="M326.561 204.791c.418 5.787-4.548 12.07-4.603 12.137 0 0 6.525-5.986 6.525-12.137 0-7.158-7.293-14.625-16.695-15.44-8.555-.742-18.255-1.114-25.902-10.104-7.137 9.154-17.348 9.362-25.904 10.104-9.401.815-16.694 8.282-16.694 15.44 0 6.15 6.525 12.137 6.525 12.137-.056-.067-5.02-6.35-4.604-12.137.32-4.459 6.005-11.395 16.667-12.357 15.324-1.384 21.673-8.521 24.01-11.621 2.338 3.1 8.688 10.236 24.01 11.621 10.66.962 16.345 7.898 16.665 12.357zm-113.268 21.775c-6.808-2.212-16.163 2.417-19.844 11.107-3.349 7.906-6.7 17.016-17.613 21.512 6.5 9.617 3.542 19.392 1.604 27.758-2.13 9.194 2.718 18.437 9.525 20.649 5.85 1.901 13.559-2.456 13.559-2.456-.08.032-7.591 2.812-12.965.627-4.142-1.682-8.981-9.232-6.603-19.669 3.419-15.001-1.406-23.245-3.633-26.426 3.671-1.265 12.42-5.098 18.472-19.244 4.21-9.841 12.563-13.105 16.903-12.032 5.632 1.391 10.074 8.056 10.12 8.128.001.002-3.674-8.053-9.525-9.954zm52.559 164.924c-2.88 3.42-11.555 5.69-20.747.202-13.21-7.888-22.542-5.847-26.255-4.713-.069-3.882-1.011-13.387-12.594-23.513-8.058-7.045-8.582-15.998-6.219-19.793 3.063-4.927 10.774-7.091 10.857-7.113 0 0-8.797 1.007-12.413 5.983-4.207 5.791-2.696 16.118 4.432 22.304 6.484 5.627 14.112 11.63 15.016 23.4 11.155-3.213 19.538 2.622 26.896 7.051 8.085 4.865 18.374 3.112 22.582-2.679 3.615-4.977 1.854-13.653 1.854-13.653.006.086.329 8.088-3.409 12.524zm60.651-.216c-9.189 5.486-17.867 3.218-20.746-.201-3.739-4.438-3.416-12.438-3.41-12.525 0 0-1.761 8.679 1.855 13.654 4.208 5.791 14.495 7.545 22.581 2.678 7.358-4.427 15.424-9.828 26.896-7.05.392-11.601 8.531-17.771 15.018-23.401 7.126-6.186 8.638-16.513 4.43-22.303-3.614-4.977-12.411-5.983-12.411-5.983.082.021 7.793 2.187 10.857 7.113 2.36 3.796 1.838 12.748-6.22 19.793-11.584 10.126-12.526 19.632-12.593 23.515-3.714-1.135-13.046-3.176-26.257 4.71zm67.377-104.842c-1.938-8.364-4.582-17.704 1.604-27.757-10.911-3.958-14.265-13.605-17.613-21.513-3.682-8.689-13.037-13.318-19.843-11.106-5.852 1.9-9.526 9.956-9.526 9.956.044-.073 4.487-6.736 10.12-8.129 4.339-1.073 12.692 2.19 16.902 12.033 6.05 14.146 14.802 17.979 18.471 19.244-2.226 3.181-7.05 11.424-3.633 26.425 2.378 10.436-2.459 17.986-6.603 19.668-5.373 2.185-12.884-.596-12.965-.628 0 0 7.71 4.356 13.561 2.456 6.807-2.212 11.654-11.455 9.525-20.649z"/>
  <path fill="#00A14B" d="M206.928 403.613c1.494 1.084 3.994 2.9 3.858 10.03-.079 4.104-3.015 6.521-8.195 10.443-6.502 4.922-14.593 11.048-17.97 24.869-1.206 4.928-2.196 7.818-2.549 11.713-.575 6.312-2.947 11.623-6.995 17.194-3.058 4.209-10.986 7.912-16.129 9.31-6.201 1.686-13.889 4.244-19.156 8.923 3.04-6.298 3.007-14.787 2.565-21.271-.369-5.403 1.107-13.501 4.163-17.709 5.286-7.275 8.416-10.357 13.927-12.421 3.408-1.276 5.921-3.083 10.279-5.873 11.628-7.45 15.032-16.943 17.767-24.573 2.249-6.271 3.713-9.881 7.675-11.197 6.859-2.274 9.208-.567 10.76.562zm158.761.031c1.491-1.085 3.991-2.901 10.73-.569 3.878 1.343 5.27 4.882 7.4 11.021 2.671 7.705 5.997 17.292 18.1 24.774 4.313 2.67 6.756 4.505 10.352 6.044 5.824 2.496 10.143 6.395 14.191 11.967 3.057 4.207 4.129 12.893 3.869 18.217-.313 6.416-.257 14.521 2.566 20.975-5.05-4.837-13.134-7.429-19.437-9.013-5.254-1.32-12.498-5.225-15.556-9.432-5.286-7.275-7.25-11.205-7.51-17.084-.16-3.636-1.102-6.583-2.41-11.591-3.49-13.361-11.468-19.531-17.878-24.489-5.27-4.077-8.251-6.586-8.278-10.76-.043-7.225 2.305-8.933 3.861-10.06zm49.089-150.979c-.572-1.754-1.526-4.693 2.773-10.382 2.475-3.273 6.272-3.504 12.77-3.632 8.153-.16 18.299-.361 29.154-9.558 3.872-3.278 6.372-5.034 8.947-7.979 4.174-4.766 9.215-7.669 15.765-9.797 4.947-1.607 13.539.057 18.522 1.949 6.005 2.281 13.73 4.73 20.742 4.041-6.162 3.308-11.125 10.195-14.578 15.701-2.879 4.588-8.831 10.271-13.777 11.879-8.553 2.779-12.898 3.434-18.567 1.864-3.509-.971-6.604-.987-11.771-1.291-13.785-.809-22.119 4.871-28.814 9.436-5.506 3.752-8.813 5.813-12.792 4.548-6.886-2.191-7.783-4.953-8.374-6.779zm-128.553-93.342c-1.846.002-4.936.001-9.018-5.847-2.348-3.365-1.394-7.047.492-13.267 2.367-7.803 5.312-17.515-.081-30.681-1.921-4.695-2.818-7.616-4.824-10.975-3.243-5.443-4.446-11.134-4.445-18.022 0-5.201 4.237-12.858 7.577-17.013 4.024-5.006 8.742-11.597 10.251-18.478 1.242 6.882 6.258 13.731 10.427 18.716 3.476 4.155 7.041 11.573 7.041 16.773 0 8.993-.721 13.328-3.965 18.235-2.008 3.037-2.979 5.975-4.864 10.795-5.029 12.861-2.202 22.542.07 30.321 1.864 6.396 2.804 10.177.372 13.57-4.21 5.875-7.113 5.876-9.033 5.873zm-128.459 93.439c-.568 1.755-1.523 4.694-8.347 6.769-3.926 1.194-7.133-.852-12.465-4.567-6.689-4.662-15.016-10.464-29.204-9.404-5.06.376-8.114.327-11.928 1.197-6.179 1.402-11.963.788-18.514-1.341-4.947-1.607-10.918-8.004-13.839-12.464-3.517-5.375-8.328-11.897-14.405-15.46 6.929.945 14.993-1.709 21.022-4.133 5.026-2.021 13.182-3.12 18.128-1.513 8.552 2.779 12.453 4.803 16.117 9.405 2.268 2.848 4.761 4.68 8.763 7.962 10.678 8.758 20.758 9.06 28.859 9.303 6.659.202 10.546.479 13.022 3.839 4.283 5.82 3.386 8.581 2.791 10.407zm88.674-13.088c-.969.705-2.589 1.882-6.96.369-2.515-.87-3.418-3.165-4.8-7.146-1.731-4.998-3.889-11.216-11.737-16.068-2.798-1.731-4.382-2.922-6.713-3.92-3.778-1.618-6.578-4.146-9.203-7.76-1.983-2.729-2.678-8.36-2.51-11.813.203-4.162.167-9.417-1.665-13.603 3.275 3.136 8.518 4.817 12.605 5.844 3.408.856 8.105 3.388 10.088 6.118 3.428 4.718 4.702 7.266 4.871 11.078.104 2.359.714 4.271 1.563 7.518 2.264 8.665 7.437 12.667 11.593 15.881 3.418 2.644 5.352 4.272 5.37 6.979.028 4.685-1.495 5.792-2.502 6.523zm-25.323 75.7c.372 1.139.99 3.043-1.799 6.733-1.604 2.123-4.067 2.272-8.279 2.357-5.288.103-11.869.232-18.909 6.197-2.51 2.126-4.132 3.265-5.803 5.174-2.706 3.093-5.975 4.975-10.224 6.354-3.208 1.042-8.779-.036-12.01-1.264-3.896-1.479-8.905-3.068-13.452-2.62 3.995-2.146 7.214-6.612 9.453-10.182 1.868-2.977 5.728-6.662 8.936-7.704 5.546-1.802 8.363-2.227 12.041-1.209 2.276.63 4.283.64 7.633.837 8.939.524 14.345-3.158 18.687-6.118 3.571-2.434 5.716-3.77 8.296-2.95 4.464 1.42 5.046 3.21 5.43 4.395zm64.245 47.172c1.197-.001 3.2-.001 5.847 3.792 1.523 2.181.903 4.568-.317 8.602-1.536 5.061-3.446 11.359.051 19.898 1.246 3.045 1.828 4.938 3.127 7.118 2.105 3.529 2.885 7.22 2.885 11.688 0 3.372-2.748 8.336-4.912 11.032-2.613 3.246-5.672 7.52-6.65 11.981-.807-4.462-4.058-8.903-6.762-12.137-2.253-2.695-4.566-7.505-4.565-10.879 0-5.831.466-8.644 2.57-11.826 1.302-1.968 1.933-3.874 3.155-7 3.261-8.34 1.429-14.619-.044-19.662-1.212-4.148-1.819-6.603-.242-8.801 2.728-3.807 4.611-3.807 5.857-3.806zm64.712-46.789c.368-1.139.986-3.044 5.412-4.389 2.547-.775 4.627.552 8.083 2.959 4.339 3.025 9.74 6.789 18.941 6.102 3.28-.245 5.262-.212 7.734-.775 4.008-.912 7.758-.513 12.008.868 3.209 1.042 7.081 5.189 8.974 8.083 2.282 3.486 5.4 7.716 9.342 10.025-4.492-.611-9.723 1.11-13.633 2.682-3.261 1.31-8.549 2.023-11.757.979-5.547-1.801-8.075-3.113-10.452-6.098-1.471-1.847-3.089-3.036-5.685-5.164-6.923-5.679-13.46-5.877-18.713-6.035-4.32-.129-6.841-.31-8.445-2.49-2.777-3.773-2.195-5.564-1.809-6.747zm-24.248-75.924c-.97-.704-2.591-1.881-2.502-6.505.049-2.659 1.954-4.228 5.313-6.772 4.217-3.19 9.465-7.164 11.655-16.128.782-3.195 1.425-5.071 1.654-7.596.371-4.093 1.908-7.537 4.534-11.152 1.984-2.729 7.124-5.129 10.46-6.038 4.022-1.091 9.009-2.75 12.423-5.786-1.97 4.085-1.95 9.589-1.662 13.795.238 3.505-.718 8.754-2.702 11.484-3.427 4.717-5.456 6.718-9.029 8.057-2.211.827-3.842 1.998-6.668 3.808-7.54 4.83-9.749 10.988-11.521 15.933-1.457 4.069-2.409 6.411-4.978 7.263-4.447 1.476-5.97.369-6.977-.363z"/>
  <path d="M316.939 292.741c0 8.43-3.265 16.096-8.601 21.803-1.514 1.619-4.985 3.031 16.069 33.084-22.489-30.054-24.058-26.819-25.663-26.053-4.162 1.987-8.82 3.099-13.74 3.099-4.697 0-9.158-1.014-13.174-2.836-2.065-.937-4.64-4.512-27.84 26.78 21.466-32.407 18.271-33.331 16.689-35.188-4.744-5.573-7.608-12.797-7.608-20.69 0-3.031 3.468-7.367-30.252-19.627 34.339 10.204 33.367 5.576 34.797 3.198 4.16-6.918 10.866-12.132 18.822-14.341 2.726-.758 8.338 2.474 7.967-32.575 1.411 34.43 6.321 31.8 8.996 32.527 8.67 2.357 15.873 8.273 19.942 16.083.976 1.871-1.196 6.874 37.486-6.501-38.929 14.118-33.89 18.178-33.89 21.237z"/>
  <circle cx="284.934" cy="292.806" r="29.394" fill="#FFDE17"/>
  <path d="M286.915 313.529c-1.501 0-2.876-.071-4.031-.199.514.022 1.029.034 1.543.034 3.896 0 7.544-.649 9.759-1.736 7.262-3.564 11.772-10.801 11.772-18.885 0-8.339-4.934-15.898-12.568-19.255-1.75-.769-5.54-1.306-9.218-1.306-1.609 0-3.101.104-4.391.305 1.378-.691 3.586-1.062 6.407-1.062 3.739 0 7.458.649 8.893 1.276 8.25 3.605 12.794 10.724 12.794 20.042 0 8.86-4.194 15.816-11.809 19.584-1.453.719-5.13 1.202-9.149 1.202h-.002z"/>
  <path d="M287.474 306.1c-1.021 0-1.94-.092-2.716-.265h.098c2.968 0 4.607-.558 6.291-1.459 4.301-2.301 6.973-6.758 6.973-11.633 0-4.88-2.678-9.342-6.987-11.64-1.754-.935-4.026-1.45-6.399-1.45-.266 0-.534.006-.804.019.808-.248 1.833-.378 3.012-.378 2.377 0 5.05.531 6.354 1.265 4.599 2.583 6.739 6.455 6.739 12.185 0 5.734-2.263 9.753-6.918 12.285-1.18.64-3.448 1.071-5.643 1.071z"/>
  <path d="M285.385 297.584c1.048-.132 1.836-.433 2.515-.949 1.225-.936 1.928-2.354 1.928-3.893 0-1.494-.67-2.886-1.838-3.821-.691-.554-1.665-.939-2.576-1.036 1.41-.489 3.121.197 3.697.522 1.94 1.094 2.632 2.948 2.632 4.334 0 1.734-.599 3.294-2.321 4.459-.492.333-2.953 1.095-4.037.384z"/>
  <path xmlns="http://www.w3.org/2000/svg" fill="#FFDE17" stroke="#000" stroke-width=".369em" d="M429.1225 317.6349c-3.3456-20.8239-16.9248-38.3145-57.1581-54.6366-13.9728-6.4206-29.5446-11.0208-34.1817-21.5988-1.6605-6.1623-1.8696-9.6432-.8241-13.3701 2.9889-12.1032 17.4414-15.8793 28.8927-12.4107 7.38 2.4723 14.3664 8.1549 18.573 17.2323 19.7046-12.7551 19.6554-12.669 33.4068-21.4389-5.0307-7.8105-7.7244-11.4144-11.0208-14.7477-11.8449-13.2348-27.9825-20.049-53.8002-19.5324-4.4772.5658-8.979 1.1685-13.4562 1.7343-12.8904 3.2595-25.1658 10.0245-32.3736 19.0896-21.5988 24.5262-15.4365 67.4409 10.8486 85.0914 25.9038 19.4463 63.96 23.8743 68.8185 42.0537 4.7355 22.2507-16.359 29.4585-37.3059 26.9001-15.4488-3.2103-24.0465-11.07-33.333-25.338-17.097 9.8892-17.097 9.8892-34.6614 19.9998 4.1574 9.1143 8.5485 13.2348 15.5226 21.1314 33.0747 33.5421 115.8168 31.8939 130.6629-18.8805.6027-1.7343 4.6002-13.3578 1.3899-31.2789zm-170.97-137.8092h-42.6933c0 36.8754-.1722 73.5048-.1722 110.3802 0 23.4807 1.2054 45.0057-2.6076 51.5985-6.2484 12.9765-22.4352 11.3652-29.8152 8.856-7.503-3.69-11.316-8.9421-15.744-16.359-1.2177-2.1279-2.1279-3.7761-2.4354-3.9114-11.5866 7.0725-23.124 14.1942-34.7106 21.2667 5.7687 11.8449 14.2803 22.1277 25.1658 28.8066 16.2729 9.7662 38.1423 12.7551 61.008 7.503 14.883-4.3296 27.7242-13.3209 34.4523-26.9862 9.717-17.9211 7.6383-39.6183 7.5522-63.6156.2214-39.1386 0-78.2772 0-117.5388z"/>
</svg>
